<?xml version="1.0" encoding="UTF-8"?>
<svg xmlns="http://www.w3.org/2000/svg" xmlns:xlink="http://www.w3.org/1999/xlink" width="854" height="480" viewBox="0 0 854 480">
<defs>
<g>
<g id="glyph-0-0">
<path d="M 1.53125 -0.203125 L 2.203125 -0.125 L 2.203125 0 L 0.4375 0 L 0.4375 -0.125 L 1.109375 -0.203125 L 1.109375 -2.859375 L 0.453125 -2.625 L 0.453125 -2.765625 L 1.40625 -3.296875 L 1.53125 -3.296875 Z "/>
</g>
<g id="glyph-0-1">
<path d="M 2.21875 0 L 0.21875 0 L 0.21875 -0.359375 L 0.671875 -0.765625 C 0.960938 -1.023438 1.175781 -1.234375 1.3125 -1.390625 C 1.445312 -1.546875 1.546875 -1.707031 1.609375 -1.875 C 1.671875 -2.039062 1.703125 -2.234375 1.703125 -2.453125 C 1.703125 -2.671875 1.648438 -2.832031 1.546875 -2.9375 C 1.453125 -3.050781 1.296875 -3.109375 1.078125 -3.109375 C 0.992188 -3.109375 0.90625 -3.09375 0.8125 -3.0625 C 0.726562 -3.039062 0.648438 -3.007812 0.578125 -2.96875 L 0.484375 -2.578125 L 0.328125 -2.578125 L 0.328125 -3.203125 C 0.628906 -3.273438 0.878906 -3.3125 1.078125 -3.3125 C 1.441406 -3.3125 1.710938 -3.234375 1.890625 -3.078125 C 2.066406 -2.929688 2.15625 -2.722656 2.15625 -2.453125 C 2.15625 -2.273438 2.117188 -2.101562 2.046875 -1.9375 C 1.984375 -1.78125 1.878906 -1.617188 1.734375 -1.453125 C 1.585938 -1.296875 1.34375 -1.070312 1 -0.78125 C 0.851562 -0.65625 0.703125 -0.519531 0.546875 -0.375 L 2.21875 -0.375 Z "/>
</g>
<g id="glyph-0-2">
<path d="M 0.921875 -0.21875 C 0.921875 -0.144531 0.890625 -0.078125 0.828125 -0.015625 C 0.773438 0.046875 0.707031 0.078125 0.625 0.078125 C 0.539062 0.078125 0.46875 0.046875 0.40625 -0.015625 C 0.351562 -0.078125 0.328125 -0.144531 0.328125 -0.21875 C 0.328125 -0.300781 0.351562 -0.367188 0.40625 -0.421875 C 0.46875 -0.484375 0.539062 -0.515625 0.625 -0.515625 C 0.707031 -0.515625 0.773438 -0.484375 0.828125 -0.421875 C 0.890625 -0.367188 0.921875 -0.300781 0.921875 -0.21875 Z "/>
</g>
<g id="glyph-0-3">
<path d="M 1.1875 -1.921875 C 1.5625 -1.921875 1.84375 -1.84375 2.03125 -1.6875 C 2.21875 -1.53125 2.3125 -1.289062 2.3125 -0.96875 C 2.3125 -0.644531 2.207031 -0.394531 2 -0.21875 C 1.800781 -0.0390625 1.515625 0.046875 1.140625 0.046875 C 0.835938 0.046875 0.5625 0.0078125 0.3125 -0.0625 L 0.296875 -0.75 L 0.453125 -0.75 L 0.5625 -0.28125 C 0.632812 -0.25 0.71875 -0.21875 0.8125 -0.1875 C 0.914062 -0.164062 1.015625 -0.15625 1.109375 -0.15625 C 1.359375 -0.15625 1.546875 -0.210938 1.671875 -0.328125 C 1.796875 -0.453125 1.859375 -0.660156 1.859375 -0.953125 C 1.859375 -1.148438 1.832031 -1.300781 1.78125 -1.40625 C 1.726562 -1.507812 1.644531 -1.582031 1.53125 -1.625 C 1.414062 -1.675781 1.257812 -1.703125 1.0625 -1.703125 C 0.914062 -1.703125 0.773438 -1.6875 0.640625 -1.65625 L 0.40625 -1.65625 L 0.40625 -3.28125 L 2.0625 -3.28125 L 2.0625 -2.90625 L 0.625 -2.90625 L 0.625 -1.859375 C 0.800781 -1.898438 0.988281 -1.921875 1.1875 -1.921875 Z "/>
</g>
<g id="glyph-0-4">
<path d="M 1.078125 0.046875 L 0.8125 0.046875 L 3.125 -3.328125 L 3.390625 -3.328125 Z M 1.765625 -2.421875 C 1.765625 -1.816406 1.492188 -1.515625 0.953125 -1.515625 C 0.691406 -1.515625 0.492188 -1.59375 0.359375 -1.75 C 0.234375 -1.90625 0.171875 -2.128906 0.171875 -2.421875 C 0.171875 -3.023438 0.4375 -3.328125 0.96875 -3.328125 C 1.226562 -3.328125 1.425781 -3.25 1.5625 -3.09375 C 1.695312 -2.945312 1.765625 -2.722656 1.765625 -2.421875 Z M 1.375 -2.421875 C 1.375 -2.671875 1.335938 -2.851562 1.265625 -2.96875 C 1.203125 -3.082031 1.097656 -3.140625 0.953125 -3.140625 C 0.816406 -3.140625 0.710938 -3.082031 0.640625 -2.96875 C 0.578125 -2.863281 0.546875 -2.679688 0.546875 -2.421875 C 0.546875 -2.160156 0.578125 -1.972656 0.640625 -1.859375 C 0.710938 -1.753906 0.816406 -1.703125 0.953125 -1.703125 C 1.097656 -1.703125 1.203125 -1.757812 1.265625 -1.875 C 1.335938 -1.988281 1.375 -2.171875 1.375 -2.421875 Z M 4 -0.84375 C 4 -0.238281 3.726562 0.0625 3.1875 0.0625 C 2.925781 0.0625 2.726562 -0.0078125 2.59375 -0.15625 C 2.46875 -0.3125 2.40625 -0.539062 2.40625 -0.84375 C 2.40625 -1.132812 2.46875 -1.351562 2.59375 -1.5 C 2.726562 -1.65625 2.929688 -1.734375 3.203125 -1.734375 C 3.460938 -1.734375 3.660156 -1.660156 3.796875 -1.515625 C 3.929688 -1.367188 4 -1.144531 4 -0.84375 Z M 3.609375 -0.84375 C 3.609375 -1.09375 3.570312 -1.273438 3.5 -1.390625 C 3.4375 -1.503906 3.332031 -1.5625 3.1875 -1.5625 C 3.050781 -1.5625 2.945312 -1.503906 2.875 -1.390625 C 2.8125 -1.285156 2.78125 -1.101562 2.78125 -0.84375 C 2.78125 -0.570312 2.8125 -0.378906 2.875 -0.265625 C 2.945312 -0.160156 3.050781 -0.109375 3.1875 -0.109375 C 3.332031 -0.109375 3.4375 -0.164062 3.5 -0.28125 C 3.570312 -0.40625 3.609375 -0.59375 3.609375 -0.84375 Z "/>
</g>
</g>
</defs>
<g fill="rgb(7.843137%, 72.156863%, 65.098039%)" fill-opacity="1">
<use xlink:href="#glyph-0-0" x="30" y="24.456055"/>
<use xlink:href="#glyph-0-1" x="33" y="24.456055"/>
<use xlink:href="#glyph-0-2" x="36" y="24.456055"/>
<use xlink:href="#glyph-0-3" x="37" y="24.456055"/>
<use xlink:href="#glyph-0-4" x="40" y="24.456055"/>
</g>
</svg>
