<?xml version="1.0" encoding="UTF-8"?>
<svg xmlns="http://www.w3.org/2000/svg" xmlns:xlink="http://www.w3.org/1999/xlink" width="854" height="480" viewBox="0 0 854 480">
<defs>
<g>
<g id="glyph-0-0">
<path d="M 2.046875 0 L 2.046875 -0.34375 L 3.4375 -0.515625 L 3.4375 -8.171875 L 3.109375 -8.171875 C 2.003906 -8.171875 1.253906 -8.125 0.859375 -8.03125 L 0.671875 -6.671875 L 0.234375 -6.671875 L 0.234375 -8.734375 L 7.921875 -8.734375 L 7.921875 -6.671875 L 7.484375 -6.671875 L 7.296875 -8.03125 C 7.171875 -8.0625 6.890625 -8.085938 6.453125 -8.109375 C 6.015625 -8.140625 5.535156 -8.15625 5.015625 -8.15625 L 4.6875 -8.15625 L 4.6875 -0.515625 L 6.078125 -0.34375 L 6.078125 0 Z "/>
</g>
<g id="glyph-0-1">
<path d="M 1.296875 2.875 C 0.953125 2.875 0.617188 2.835938 0.296875 2.765625 L 0.296875 1.4375 L 0.59375 1.4375 L 0.8125 2.0625 C 0.945312 2.164062 1.132812 2.21875 1.375 2.21875 C 1.601562 2.21875 1.8125 2.148438 2 2.015625 C 2.1875 1.890625 2.359375 1.695312 2.515625 1.4375 C 2.679688 1.175781 2.882812 0.71875 3.125 0.0625 L 0.78125 -5.65625 L 0.15625 -5.828125 L 0.15625 -6.125 L 3 -6.125 L 3 -5.828125 L 2.03125 -5.65625 L 3.6875 -1.375 L 5.296875 -5.65625 L 4.328125 -5.828125 L 4.328125 -6.125 L 6.609375 -6.125 L 6.609375 -5.828125 L 5.96875 -5.6875 L 3.578125 0.390625 C 3.296875 1.097656 3.050781 1.609375 2.84375 1.921875 C 2.632812 2.234375 2.40625 2.46875 2.15625 2.625 C 1.90625 2.789062 1.617188 2.875 1.296875 2.875 Z "/>
</g>
<g id="glyph-0-2">
<path d="M 0.984375 -5.65625 L 0.296875 -5.828125 L 0.296875 -6.125 L 2.015625 -6.125 L 2.03125 -5.765625 C 2.207031 -5.921875 2.445312 -6.046875 2.75 -6.140625 C 3.0625 -6.234375 3.375 -6.28125 3.6875 -6.28125 C 4.46875 -6.28125 5.070312 -6.007812 5.5 -5.46875 C 5.925781 -4.925781 6.140625 -4.144531 6.140625 -3.125 C 6.140625 -2.09375 5.90625 -1.289062 5.4375 -0.71875 C 4.976562 -0.15625 4.304688 0.125 3.421875 0.125 C 2.929688 0.125 2.46875 0.078125 2.03125 -0.015625 C 2.050781 0.296875 2.0625 0.539062 2.0625 0.71875 L 2.0625 2.375 L 3.125 2.53125 L 3.125 2.84375 L 0.21875 2.84375 L 0.21875 2.53125 L 0.984375 2.375 Z M 4.96875 -3.125 C 4.96875 -3.957031 4.832031 -4.578125 4.5625 -4.984375 C 4.289062 -5.390625 3.878906 -5.59375 3.328125 -5.59375 C 2.828125 -5.59375 2.40625 -5.519531 2.0625 -5.375 L 2.0625 -0.5 C 2.445312 -0.425781 2.867188 -0.390625 3.328125 -0.390625 C 4.421875 -0.390625 4.96875 -1.300781 4.96875 -3.125 Z "/>
</g>
<g id="glyph-0-3">
<path d="M 1.6875 -3.078125 L 1.6875 -2.96875 C 1.6875 -2.363281 1.753906 -1.894531 1.890625 -1.5625 C 2.023438 -1.226562 2.226562 -0.972656 2.5 -0.796875 C 2.78125 -0.628906 3.140625 -0.546875 3.578125 -0.546875 C 3.816406 -0.546875 4.097656 -0.5625 4.421875 -0.59375 C 4.742188 -0.632812 5.007812 -0.679688 5.21875 -0.734375 L 5.21875 -0.375 C 5.007812 -0.238281 4.722656 -0.117188 4.359375 -0.015625 C 4.003906 0.078125 3.640625 0.125 3.265625 0.125 C 2.316406 0.125 1.617188 -0.128906 1.171875 -0.640625 C 0.734375 -1.148438 0.515625 -1.972656 0.515625 -3.109375 C 0.515625 -4.171875 0.738281 -4.960938 1.1875 -5.484375 C 1.632812 -6.015625 2.273438 -6.28125 3.109375 -6.28125 C 4.671875 -6.28125 5.453125 -5.390625 5.453125 -3.609375 L 5.453125 -3.078125 Z M 3.109375 -5.765625 C 2.648438 -5.765625 2.300781 -5.582031 2.0625 -5.21875 C 1.820312 -4.851562 1.703125 -4.3125 1.703125 -3.59375 L 4.328125 -3.59375 C 4.328125 -4.375 4.222656 -4.929688 4.015625 -5.265625 C 3.816406 -5.597656 3.515625 -5.765625 3.109375 -5.765625 Z "/>
</g>
</g>
</defs>
<g fill="rgb(100%, 100%, 100%)" fill-opacity="1">
<use xlink:href="#glyph-0-0" x="30" y="31.880859"/>
<use xlink:href="#glyph-0-1" x="37" y="31.880859"/>
<use xlink:href="#glyph-0-2" x="44" y="31.880859"/>
<use xlink:href="#glyph-0-3" x="51" y="31.880859"/>
</g>
</svg>
